<?xml version="1.0" standalone="no"?>
<!DOCTYPE svg PUBLIC "-//W3C//DTD SVG 20010904//EN"
 "http://www.w3.org/TR/2001/REC-SVG-20010904/DTD/svg10.dtd">
<svg version="1.0" xmlns="http://www.w3.org/2000/svg"
 width="1000.000000pt" height="985.000000pt" viewBox="0 0 1000.000000 985.000000"
 preserveAspectRatio="xMidYMid meet">
<metadata>
Created by potrace 1.16, written by Peter Selinger 2001-2019
</metadata>
<g transform="translate(0.000000,985.000000) scale(0.100000,-0.100000)"
fill="#000000" stroke="none">
<path d="M4605 9839 c-1046 -83 -2029 -488 -2845 -1173 -119 -100 -394 -370
-510 -501 -724 -819 -1155 -1843 -1240 -2944 -13 -174 -13 -569 0 -742 68
-880 350 -1697 832 -2414 187 -277 369 -497 618 -745 469 -469 984 -816 1599
-1080 215 -91 710 -254 726 -238 3 3 -1 34 -10 69 -12 52 -15 151 -15 540 l0
477 -382 5 c-426 5 -486 12 -642 77 -244 102 -373 255 -490 585 -156 434 -243
593 -402 731 -127 110 -154 140 -154 168 0 36 38 72 91 86 53 14 109 0 235
-60 171 -82 317 -212 522 -465 162 -200 216 -243 362 -282 122 -33 766 -18
962 23 24 5 36 23 88 132 127 264 327 509 518 632 83 54 90 70 30 70 -55 0
-388 61 -547 101 -983 242 -1603 759 -1801 1501 -79 297 -89 602 -30 885 62
296 225 625 448 902 l75 94 -36 151 c-75 309 -102 537 -94 781 7 221 42 368
116 482 56 87 57 87 164 79 411 -29 776 -195 1094 -500 l113 -109 123 37 c725
215 1420 218 2148 10 l157 -45 53 57 c30 31 95 90 144 132 297 250 646 395
1006 418 l104 7 33 -46 c89 -125 129 -273 139 -507 10 -269 -34 -576 -133
-928 -5 -18 1 -31 24 -55 51 -54 170 -215 222 -302 254 -420 344 -860 274
-1329 -134 -899 -823 -1502 -1974 -1730 -96 -19 -237 -43 -312 -52 -76 -10
-138 -21 -138 -24 0 -4 12 -12 28 -19 45 -21 149 -99 219 -164 240 -225 436
-595 514 -972 22 -106 23 -130 27 -743 2 -405 0 -657 -7 -700 -6 -36 -9 -67
-8 -69 2 -1 61 19 133 46 1046 392 1937 1135 2519 2101 108 179 285 538 358
725 238 609 347 1190 347 1845 0 362 -28 651 -96 990 -234 1176 -886 2226
-1847 2973 -230 179 -519 361 -796 501 -594 300 -1220 474 -1890 526 -158 12
-607 11 -766 -1z"/>
</g>
</svg>
